<svg width="960" height="360" viewBox="0 0 960 360" fill="none" xmlns="http://www.w3.org/2000/svg">
<path d="M960 0H0V360H960V0Z" fill="#A0DAFF"/>
<path d="M659.407 255.899L644.602 359.815H268.305L257.19 280.542C255.948 271.661 260.867 263.053 269.144 259.612L302.537 245.754V212.538C302.537 202.747 309.703 194.458 319.388 193.051L327.286 191.892L340.554 147.041C343.025 138.657 350.723 132.934 359.438 132.934H495.126C500.294 132.934 505.012 134.921 508.536 138.196C512.059 141.483 514.389 146.048 514.767 151.203L579.377 158.026C588.967 159.043 596.405 166.835 596.984 176.461L599.598 221.276L645.253 234.177C654.748 236.85 660.79 246.144 659.407 255.911V255.899Z" fill="#81D5FB"/>
<path d="M348.96 321.088C348.96 309.89 357.154 300.395 368.246 298.775L377.28 297.451L392.463 246.12C395.289 236.53 404.098 229.967 414.078 229.967H569.36C575.273 229.967 580.676 232.249 584.709 235.998C588.741 239.758 591.401 244.985 591.839 250.873L659.074 257.968L644.577 359.803H347.257L348.96 359.093V321.077V321.088Z" fill="#55C9FB"/>
<path d="M505.705 0H621.055V107.664H505.705V0Z" fill="#112B46"/>
<g style="mix-blend-mode:screen">
<g style="mix-blend-mode:screen">
<path d="M505.705 0H621.055V11.3872H505.705V0Z" fill="#1D262D"/>
</g>
</g>
<path d="M530.632 5.81807C530.632 6.96507 531.567 7.91104 532.725 7.91104C533.884 7.91104 534.818 6.9769 534.818 5.81807C534.818 4.65925 533.884 3.7251 532.725 3.7251C531.567 3.7251 530.632 4.65925 530.632 5.81807Z" fill="#606BF1"/>
<path d="M521.918 5.81807C521.918 6.96507 522.852 7.91104 524.011 7.91104C525.169 7.91104 526.104 6.9769 526.104 5.81807C526.104 4.65925 525.169 3.7251 524.011 3.7251C522.852 3.7251 521.918 4.65925 521.918 5.81807Z" fill="#FBD15B"/>
<path d="M513.83 6.0422C513.83 7.18919 514.764 8.13516 515.923 8.13516C517.081 8.13516 518.016 7.20102 518.016 6.0422C518.016 4.88338 517.081 3.94922 515.923 3.94922C514.764 3.94922 513.83 4.88338 513.83 6.0422Z" fill="#FF8578"/>
<path d="M584.197 21.9702H600.539V23.3419H584.197V21.9702Z" fill="#FF8578"/>
<path d="M565.016 21.9702H581.357V23.3419H565.016V21.9702Z" fill="#FBD15B"/>
<path d="M570.15 29.3726H595.49V30.7442H570.15V29.3726Z" fill="#606BF1"/>
<path d="M553.086 29.3726H565.963V30.7442H553.086V29.3726Z" fill="#FF8578"/>
<path d="M575.578 36.7627H586.705V38.1343H575.578V36.7627Z" fill="#FBD15B"/>
<path d="M532.226 36.7627H569.143V38.1343H532.226V36.7627Z" fill="#FBD15B"/>
<path d="M535.87 44.165H578.061V45.5367H535.87V44.165Z" fill="#606BF1"/>
<path d="M575.626 51.5562H588.609V52.9278H575.626V51.5562Z" fill="#FF8578"/>
<path d="M557.083 51.5562H570.066V52.9278H557.083V51.5562Z" fill="#606BF1"/>
<path d="M581.655 89.9385H600.539V91.3101H581.655V89.9385Z" fill="#FF8578"/>
<path d="M556.149 89.9385H575.033V91.3101H556.149V89.9385Z" fill="#FBD15B"/>
<path d="M531.339 89.9385H550.223V91.3101H531.339V89.9385Z" fill="#FF8578"/>
<path d="M558.574 82.5361H595.49V83.9078H558.574V82.5361Z" fill="#606BF1"/>
<path d="M515.898 82.5361H552.814V83.9078H515.898V82.5361Z" fill="#FF8578"/>
<path d="M550.072 75.1455H586.705V76.5172H550.072V75.1455Z" fill="#FF8578"/>
<path d="M536.684 75.1455H546.877V76.5172H536.684V75.1455Z" fill="#FBD15B"/>
<path d="M575.304 67.7432H589.092V69.1148H575.304V67.7432Z" fill="#FBD15B"/>
<path d="M554.187 67.7432H567.975V69.1148H554.187V67.7432Z" fill="#606BF1"/>
<path d="M531.531 67.7432H545.318V69.1148H531.531V67.7432Z" fill="#FF8578"/>
<path d="M553.772 60.353H573.105V61.7247H553.772V60.353Z" fill="#FBD15B"/>
<path d="M580.403 60.353H599.736V61.7247H580.403V60.353Z" fill="#606BF1"/>
<path d="M609.467 20.6455H611.229V22.4074H609.467V20.6455Z" fill="#F9FBFC"/>
<path d="M609.478 85.1492H611.24V81.5663H609.478V85.1492ZM609.478 76.1861H611.24V72.6032H609.478V76.1861ZM609.478 67.223H611.24V63.6401H609.478V67.223ZM609.478 58.2598H611.24V54.677H609.478V58.2598ZM609.478 49.2967H611.24V45.7138H609.478V49.2967ZM609.478 40.3336H611.24V36.7507H609.478V40.3336ZM609.478 31.3705H611.24V27.7876H609.478V31.3705Z" fill="#F9FBFC"/>
<path d="M609.465 90.5176H611.227V92.2795H609.465V90.5176Z" fill="#F9FBFC"/>
<path d="M403.042 96.8555C403.172 98.1917 405.005 112.192 419.408 112.192C434.52 112.192 431.989 97.2339 431.989 97.2339L432.013 97.1393C430.535 96.8319 428.95 96.7254 427.271 96.9146V89.8316L410.113 80.23H409.487V96.7609C409.487 96.7609 406.767 96.4416 403.042 96.8555Z" fill="url(#paint0_radial_2734_2107)"/>
<path d="M411.378 48.6099C408.942 51.0813 407.109 54.274 406.222 58.1643C404.579 65.4365 406.128 73.1226 408.232 80.1228C408.587 81.3171 409.001 82.535 409.746 83.5401C410.278 84.2614 410.952 84.8527 411.626 85.4439C414.677 88.1045 417.728 90.765 420.778 93.4256C422.848 95.2347 435.547 96.7365 437.971 94.9983C447.313 88.3173 449.11 68.9603 447.242 59.063C444.144 42.6503 423.037 36.7734 411.39 48.5981L411.378 48.6099Z" fill="url(#paint1_radial_2734_2107)"/>
<path d="M416.628 69.6112C416.498 68.0267 414.878 66.3002 413.246 67.329C411.555 68.3932 411.957 71.1957 412.654 72.7447C413.198 73.9508 415.043 75.287 416.285 74.1518C417.325 73.2059 415.705 72.0943 415.658 71.2311C415.611 70.4507 417.16 69.8949 416.521 69.0672" fill="#F7B094"/>
<path d="M416.331 76.9191C414.628 77.4275 411.743 76.1268 411.01 73.7619C410.276 71.3851 410.359 68.6772 410.359 68.6772C410.359 68.6772 409.496 70.8293 409.945 74.2822C410.395 77.735 411.601 81.0222 414.309 81.0695C417.017 81.1168 416.331 76.9191 416.331 76.9191Z" fill="#F7B094"/>
<path d="M418.414 74.4595C418.414 74.4595 418.532 74.5068 418.603 74.5186C419.655 74.6605 420.081 73.3953 420.235 72.5912C420.601 70.7229 420.542 68.8428 420.613 66.9508C420.625 66.4778 420.589 65.8866 420.779 65.4491C421.37 64.0892 422.954 63.2142 423.427 61.8071C423.983 60.1753 422.41 58.5553 423.037 56.7698C423.995 54.0383 427.507 53.4115 430.049 53.4352C433.857 53.4825 437.57 54.192 441.33 54.7714C445.291 55.3863 450.364 55.9657 453.864 53.4588C458.074 50.4317 459.836 42.5565 456.69 38.2405C454.976 35.8873 451.724 34.6339 448.874 34.5748C445.859 34.5038 443.305 36.3012 440.538 37.2117C438.326 37.933 436.198 35.8282 434.141 35.4144C431.551 34.8941 430.451 37.7202 428.157 37.8029C425.934 37.8739 423.747 36.1357 421.583 35.7454C417.267 34.9532 417.515 39.2929 414.63 40.7709C412.832 41.6933 410.503 41.1375 408.682 42.0716C407.298 42.7811 407.109 44.0346 406.802 45.4417C406.542 46.6596 406.53 48.0786 406.128 49.2374C405.761 50.278 404.886 50.9402 404.2 51.7561C403.455 52.6429 402.971 53.6953 402.592 54.8069C401.753 57.29 401.563 59.9624 401.8 62.5639C402.19 66.9272 403.585 71.2195 405.04 75.3227C405.986 77.9833 406.341 80.7621 407.783 83.2807C408.173 83.9547 409.912 85.9413 410.55 84.4632C410.692 84.1439 410.669 83.7892 410.645 83.4463C410.456 80.7029 407.902 63.0014 414.594 65.1298C416.001 65.5792 416.947 66.7498 417.468 68.086C418.094 69.6823 418.142 71.2905 418.059 72.9814C418.059 73.2179 418.035 73.4662 418.059 73.7027C418.071 74.0102 418.154 74.3294 418.414 74.4595Z" fill="#3D3D7A"/>
<path d="M427.273 95.2954C419.646 94.0657 414.621 88.0469 414.621 88.0469C414.621 88.0469 416.678 98.1925 427.734 98.7364L427.273 95.2954Z" fill="#F7B094"/>
<path d="M405.777 340.208H412.836C413.901 340.208 414.764 339.344 414.764 338.28V233.596H403.85V338.28C403.85 339.344 404.713 340.208 405.777 340.208Z" fill="#0A2033"/>
<path d="M386.774 244.204H431.838C435.953 244.204 439.299 240.857 439.299 236.742V235.099H379.301V236.742C379.301 240.857 382.647 244.204 386.762 244.204H386.774Z" fill="#30475E"/>
<path d="M405.777 353.971H412.836C413.901 353.971 414.764 353.108 414.764 352.043V327.791H403.85V352.043C403.85 353.108 404.713 353.971 405.777 353.971Z" fill="#0A2033"/>
<path d="M465.916 347.598C465.916 351.121 463.054 353.983 459.531 353.983C456.007 353.983 453.145 351.121 453.145 347.598C453.145 344.074 456.007 341.212 459.531 341.212C463.054 341.212 465.916 344.074 465.916 347.598Z" fill="#0A2033"/>
<path d="M365.455 347.598C365.455 351.121 362.594 353.983 359.07 353.983C355.546 353.983 352.684 351.121 352.684 347.598C352.684 344.074 355.546 341.212 359.07 341.212C362.594 341.212 365.455 344.074 365.455 347.598Z" fill="#0A2033"/>
<path d="M420.285 338.848H398.338V319.668H420.285V338.848Z" fill="#30475E"/>
<path d="M352.697 343.364H465.931V341.141C465.931 337.392 462.88 334.342 459.131 334.342H359.496C355.748 334.342 352.697 337.392 352.697 341.141V343.364Z" fill="#FBD15B"/>
<path d="M409.302 246.355H413.086V317.954H409.302V246.355Z" fill="#30475E"/>
<path d="M366.435 157.73C369.049 157.647 371.177 159.811 371.035 162.424C370.29 175.42 373.045 207.122 385.142 217.941C399.947 231.161 441.889 229.364 441.889 229.364C441.889 229.364 448.818 237.866 434.96 239.758C421.101 241.65 382.056 240.385 372.62 231.575C363.479 223.038 358.052 200.677 362.143 161.762C362.379 159.527 364.201 157.801 366.447 157.73H366.435Z" fill="#FBD15B"/>
<path d="M445.031 317.955L440.041 329.33L455.318 336.035L460.332 324.624L445.031 317.955Z" fill="url(#paint2_radial_2734_2107)"/>
<path d="M372.948 191.549C373.894 193.441 441.803 191.584 448.212 192.176C448.212 192.176 489.776 212.017 495.748 230.582C496.351 232.45 496.516 234.922 496.339 237.878C494.672 264.022 464.897 326.634 464.897 326.634L460.321 324.636L445.02 317.967L442.844 317.021C442.844 317.021 466.458 246.652 461.74 242.868C457.022 239.084 403.491 229.648 384.927 224.623C366.338 219.573 372.948 191.561 372.948 191.561V191.549Z" fill="#56548C"/>
<path d="M503.294 320.887L502.1 337.973H518.784L519.979 320.839L503.294 320.887Z" fill="url(#paint3_radial_2734_2107)"/>
<path d="M448.555 191.584L449.158 191.844C449.158 191.844 518.735 201.611 530.074 221.122C537.441 233.822 523.181 326.587 523.181 326.587L498.562 326.646C498.562 326.646 502.239 249.371 501.021 245.067C499.638 240.16 497.285 238.374 496.339 237.866C496.528 234.922 496.362 232.438 495.747 230.57C489.776 211.994 448.212 192.164 448.212 192.164C448.342 192.069 448.46 191.856 448.555 191.572V191.584Z" fill="#3D3D7A"/>
<path d="M381.355 127.293L386.026 127.931C386.026 127.931 387.161 140.513 389.94 153.094L448.07 175.159L448.863 179.369C449.111 179.345 449.359 179.333 449.584 179.309C449.56 180.173 449.56 181.024 449.525 181.816C449.395 186.676 449.076 190.165 448.567 191.56C448.472 191.844 448.354 192.056 448.224 192.151C446.64 193.44 426.088 190.945 403.858 199.104C384.584 206.187 373.776 213.909 373.279 212.88C367.225 200.286 378.246 150.859 381.367 127.281L381.355 127.293Z" fill="#FF8578"/>
<path d="M387.422 156.122C388.971 163.571 392.979 178.376 400.831 180.362C411.095 182.964 430.925 182.834 449.513 181.84C449.549 181.048 449.549 180.197 449.572 179.333C449.348 179.357 449.099 179.369 448.851 179.393L448.059 175.183L389.928 153.118C387.15 140.537 386.014 127.955 386.014 127.955C386.014 127.955 386.014 128.026 385.991 128.168C385.873 130.119 385.08 145.148 387.41 156.145L387.422 156.122Z" fill="#F4675D"/>
<path d="M445.682 108.729C446.722 110.62 448.212 130.829 449.028 150.895L460.912 139.804C455.863 130.037 445.682 108.729 445.682 108.729Z" fill="#F4675D"/>
<path d="M452.813 165.545C462.841 167.284 472.064 168.774 472.064 168.774L472.088 169.27C483.25 160.354 500.242 135.097 500.242 135.097C500.242 135.097 495.158 128.995 493.892 127.387C493.703 127.139 466.01 146.2 464.591 146.035C464.236 145.999 462.817 143.504 460.925 139.803L449.041 150.895C449.23 155.672 449.384 160.437 449.479 164.954C450.59 165.167 451.714 165.356 452.825 165.557L452.813 165.545Z" fill="#F7B094"/>
<path d="M472.061 168.786L472.309 177.063H502.533C502.533 177.063 499.53 165.25 491.347 165.25C483.164 165.25 480.007 169.578 480.007 169.578L472.049 168.786H472.061Z" fill="url(#paint4_radial_2734_2107)"/>
<path d="M494.104 127.199L493.879 127.388C495.145 128.996 500.229 135.097 500.229 135.097L503.386 132.863C503.386 132.863 506.863 134.979 510.907 132.768C515.116 130.486 512.515 125.023 512.29 124.372C513.106 124.597 518.155 128.688 518.948 128.251C519.74 127.813 520.331 126.383 514.679 120.801C509.05 115.232 501.376 122.386 501.152 122.386L494.104 127.187V127.199Z" fill="#F7B094"/>
<path d="M510.244 131.822C510.244 131.822 511.462 134.104 509.298 135.098C507.134 136.091 502.925 136.8 501.116 136.635C499.307 136.469 497.864 133.927 497.864 133.927L503.339 128.783H507.726L510.244 131.822Z" fill="#F7B094"/>
<path d="M510.575 132.945C510.256 131.822 507.134 132.425 505.207 132.472C503.788 132.508 503.007 132.129 502.57 131.053C502.132 129.966 504.19 128.251 504.604 128.783C505.006 129.327 503.859 130.084 503.823 130.805C503.788 131.526 505.857 131.763 507.442 131.763C509.026 131.763 511.77 132.177 511.77 132.177L510.563 132.945H510.575Z" fill="#E8987C"/>
<path d="M392.888 163.832L422.497 153.343C424.649 157.364 426.955 160.391 429.237 160.994C432.69 161.904 441.05 163.465 449.469 164.943C450.581 165.156 451.704 165.345 452.816 165.546C462.843 167.285 472.066 168.774 472.066 168.774L472.09 169.271V169.59L472.314 177.052V178.944C472.314 178.944 462.263 178.435 449.587 179.322C431.85 180.587 408.97 181.344 401.39 177.773C397.842 176.094 395.005 170.572 392.77 163.773L392.888 163.832Z" fill="url(#paint5_radial_2734_2107)"/>
<path d="M422.487 153.343L392.89 163.832L394.226 167.793L423.527 155.223L422.487 153.343Z" fill="#F7B094"/>
<path d="M422.485 153.343C424.637 157.363 426.943 160.391 429.225 160.994C432.678 161.904 441.038 163.465 449.457 164.943C449.362 160.426 449.209 155.673 449.02 150.883C448.204 130.817 446.714 110.609 445.673 108.717C443.97 105.559 439.323 98.7011 431.992 97.1402L431.968 97.2348C431.968 97.2348 434.499 112.193 419.387 112.193C404.275 112.193 403.163 98.1926 403.021 96.8564C395.619 97.6842 384.256 101.385 382.695 116.273C382.375 119.217 381.914 123.001 381.335 127.281L386.006 127.92C386.006 127.92 387.898 148.885 392.746 163.761L392.864 163.82L422.473 153.331L422.485 153.343Z" fill="#FF8578"/>
<g style="mix-blend-mode:screen">
<path d="M422.791 150.623L410.978 122.007L419.681 151.77L422.791 150.623Z" fill="#6D4B35"/>
</g>
<path d="M403.046 96.8564H409.49C409.49 96.8564 418.654 106.919 424.555 106.919C430.455 106.919 427.274 96.9038 427.274 96.9038H430.148C438.413 96.9038 445.354 103.112 446.288 111.318C446.395 112.264 446.489 113.151 446.572 113.955C447.199 120.045 422.533 124.479 422.533 124.479L409.833 123.769L402.123 108.717L400.586 102.556L403.046 96.8564Z" fill="#FF8578"/>
<path d="M480.791 349.124C480.211 352.198 478.083 354.386 475.009 353.818L433.977 346.168C432.936 345.979 432.25 344.974 432.451 343.933L433.125 340.291C433.125 340.291 476.286 347.847 480.814 349.1L480.791 349.124Z" fill="#F1F2F2"/>
<path d="M468.576 338.801C468.15 338.435 467.737 338.056 467.311 337.69C466.483 336.957 465.679 336.235 464.899 335.538C464.485 335.171 464.071 334.804 463.693 334.45C462.948 333.776 462.238 333.149 461.6 332.581C461.15 332.168 460.724 331.777 460.334 331.434C459.637 330.808 459.057 330.287 458.655 329.933C458.312 329.625 457.792 329.602 457.437 329.909C455.746 331.328 450.295 334.568 440.421 328.455C439.948 328.159 439.334 328.313 439.073 328.809L433.102 340.291C433.102 340.291 476.262 347.847 480.791 349.101C479.301 348.166 473.791 343.401 468.564 338.789L468.576 338.801Z" fill="#3D3D7A"/>
<path d="M545.416 348.722C545.345 351.855 543.583 354.35 540.45 354.279L498.72 353.262C497.668 353.239 496.828 352.364 496.852 351.299L496.946 347.598C496.946 347.598 540.757 348.178 545.428 348.698V348.722H545.416Z" fill="#F1F2F2"/>
<path d="M531.711 340.468C531.226 340.172 530.765 339.877 530.28 339.569C529.346 338.978 528.436 338.399 527.561 337.831C527.099 337.535 526.626 337.24 526.201 336.956C525.349 336.412 524.557 335.904 523.848 335.442C523.327 335.111 522.854 334.792 522.417 334.508C521.625 334 520.974 333.586 520.525 333.29C520.135 333.042 519.626 333.101 519.319 333.456C517.876 335.123 513.016 339.191 502.291 334.733C501.783 334.52 501.191 334.768 501.026 335.289L496.958 347.575C496.958 347.575 540.769 348.154 545.439 348.674C543.819 347.988 537.623 344.169 531.723 340.444L531.711 340.468Z" fill="#3D3D7A"/>
<path d="M575.095 178.954L597.385 119.512H533.933L511.656 178.954H575.095Z" fill="#ABB5BA"/>
<path d="M507.73 178.954H511.656L533.934 119.512L530.374 119.677L509.764 173.468L507.73 178.954Z" fill="#8495A0"/>
<path d="M508.959 178.955H467.04L467.159 175.206H509.822" fill="#8495A0"/>
<path d="M330.347 190.283H340.445V356.1H330.347V190.283Z" fill="#8495A0"/>
<path d="M385.142 190.283H395.24V356.1H385.142V190.283Z" fill="#ABB5BA"/>
<path d="M560.667 190.283H570.766V356.1H560.667V190.283Z" fill="#8495A0"/>
<path d="M615.451 190.283H625.549V356.1H615.451V190.283Z" fill="#ABB5BA"/>
<path d="M320.259 178.955H635.222C637.932 178.955 640.129 181.152 640.129 183.862V186.014C640.129 188.724 637.932 190.921 635.222 190.921H320.259C317.549 190.921 315.352 188.724 315.352 186.014V183.862C315.352 181.152 317.549 178.955 320.259 178.955Z" fill="#141B56"/>
<path d="M586.789 125.767L585.701 128.652H573.061L574.148 125.767H586.789Z" fill="#8495A0"/>
<path d="M460.916 139.803L461.826 141.553L449.032 154.773V150.895L460.916 139.803Z" fill="#E8987C"/>
<path d="M280.835 267.477C282.869 277.327 282.254 294.094 295.273 296.743C298.785 297.452 302.167 295.028 304.201 292.238C306.873 288.596 307.512 280.874 307.464 276.463C307.429 272.963 306.235 269.061 305.856 265.537C305.442 261.73 305.099 257.91 304.662 254.103C303.066 240.374 295.888 228.869 283.756 222.022C282.822 226.528 280.681 230.347 278.79 234.663C277.926 236.638 277.158 238.719 276.59 240.788C275.597 244.454 276.803 248.143 277.69 251.655C279.002 256.834 279.747 262.238 280.835 267.477Z" fill="url(#paint6_linear_2734_2107)"/>
<path d="M297.473 297.085C297.378 296.258 297.284 295.43 297.166 294.614C295.605 294.614 293.985 293.727 292.684 293.053C290.414 291.883 288.581 290.192 286.807 288.394C286.713 288.3 286.878 288.146 286.973 288.229C288.746 289.719 290.591 291.161 292.696 292.143C293.878 292.687 295.593 293.585 297.047 293.763C296.905 292.781 296.764 291.788 296.598 290.806C294.978 290.605 293.488 289.541 292.116 288.725C289.787 287.342 287.777 285.556 285.696 283.83C285.672 283.806 285.696 283.771 285.719 283.794C288.9 286.1 292.448 289.388 296.468 290.109C296.255 288.879 296.03 287.649 295.77 286.431C295.758 286.372 295.747 286.301 295.735 286.242C291.076 285.06 287.93 281.418 284.359 278.461C284.3 278.414 284.359 278.32 284.43 278.367C287.942 281.098 291.241 284.208 295.581 285.533C295.203 283.794 294.812 282.056 294.422 280.318C290.213 278.769 286.843 276.298 283.898 272.857C283.851 272.797 283.934 272.715 283.981 272.774C287.032 275.943 290.378 277.764 294.245 279.573C293.855 277.858 293.464 276.132 293.098 274.417C291.277 273.519 289.361 272.975 287.67 271.792C286.015 270.634 284.525 269.238 283.449 267.512C283.39 267.417 283.532 267.334 283.591 267.417C285.944 270.811 289.503 271.863 292.932 273.637C292.601 272.029 292.282 270.421 292.01 268.801C288.179 266.696 284.028 264.745 281.853 260.701C281.829 260.665 281.888 260.618 281.912 260.665C284.206 264.378 288.226 265.975 291.868 267.997C291.821 267.713 291.774 267.417 291.726 267.133C291.49 265.632 291.277 264.13 291.052 262.616C288.853 261.741 286.76 260.488 284.773 259.199C283.366 258.289 281.864 257.378 280.954 255.947C280.895 255.853 281.025 255.77 281.096 255.853C283.153 258.797 287.647 260.488 290.969 261.966C290.757 260.441 290.544 258.927 290.319 257.402C286.63 255.167 282.302 253.937 280.032 249.917C279.961 249.798 280.138 249.692 280.209 249.798C282.562 253.464 286.689 254.599 290.213 256.68C290.083 255.734 289.941 254.8 289.799 253.854C285.826 252.388 281.19 249.065 279.097 245.471C278.979 245.27 279.263 245.092 279.393 245.281C281.533 248.439 285.826 251.868 289.681 253.121C289.444 251.596 289.196 250.07 288.924 248.557C288.9 248.51 288.876 248.474 288.865 248.427C287.079 247.906 285.317 246.641 283.768 245.695C281.912 244.548 280.138 243.212 278.979 241.332C278.849 241.119 279.192 240.93 279.31 241.143C281.072 244.3 285.27 246.405 288.746 247.611C288.64 247.055 288.545 246.499 288.439 245.955C288.273 245.128 288.108 244.3 287.942 243.472C286.523 242.491 284.714 242.018 283.283 240.989C282.042 240.09 280.954 239.002 279.902 237.903C279.795 237.796 279.949 237.619 280.067 237.725C281.51 239.085 282.988 240.374 284.738 241.32C285.719 241.84 286.831 242.148 287.789 242.715C287.517 241.367 287.233 240.008 286.973 238.66C286.961 238.66 286.937 238.66 286.925 238.66H286.878C286.783 238.683 286.701 238.66 286.642 238.6C284.714 238.116 283.224 236.448 281.935 235.029C281.9 234.994 281.947 234.947 281.983 234.982C283.343 236.247 284.892 237.643 286.724 238.175C286.724 238.175 286.724 238.175 286.748 238.175L286.89 238.151C286.677 237.051 286.476 235.952 286.299 234.84C286.157 234.816 286.039 234.698 286.074 234.556C285.045 233.871 284.123 232.996 283.248 232.132C283.177 232.073 283.272 231.967 283.342 232.026C284.253 232.806 285.152 233.457 286.169 234.024C285.802 231.742 285.53 229.448 285.4 227.119C285.388 226.906 285.707 226.906 285.731 227.119C285.932 229.353 286.263 231.565 286.642 233.764C287.706 232.369 288.9 230.926 289.55 229.318C289.586 229.235 289.716 229.271 289.692 229.354C289.373 230.347 288.829 231.222 288.285 232.097C287.8 232.889 287.41 233.811 286.783 234.509C286.996 235.692 287.233 236.874 287.469 238.045C288.77 237.832 289.953 237.595 291.029 236.649C292.341 235.502 293.086 233.941 293.216 232.203C293.228 231.99 293.571 231.99 293.547 232.203C293.405 233.811 292.755 235.325 291.655 236.531C290.496 237.796 289.137 238.198 287.576 238.518C287.86 239.877 288.155 241.237 288.451 242.585C289.633 241.876 290.721 240.954 291.785 240.114C293.5 238.754 294.505 237.111 295.995 235.573C296.149 235.42 296.385 235.644 296.243 235.798C294.848 237.276 293.914 238.884 292.317 240.209C291.182 241.166 289.917 242.373 288.557 243.07L288.604 243.283C288.604 243.283 288.64 243.307 288.652 243.318C288.758 243.425 288.746 243.543 288.687 243.626C288.971 244.927 289.255 246.227 289.539 247.528C289.55 247.611 289.574 247.694 289.586 247.776C292.613 246.393 297.142 243.981 297.544 240.469C297.579 240.138 298.076 240.232 298.005 240.575C297.106 244.548 292.743 246.31 289.728 248.486C290.023 249.964 290.295 251.43 290.544 252.92C292.495 252.246 294.363 251.418 296.007 250.106C297.497 248.923 299.613 247.481 300.287 245.648C300.311 245.589 300.394 245.624 300.37 245.683C299.743 247.516 297.851 248.77 296.468 250.023C294.718 251.608 292.921 252.956 290.674 253.582C290.686 253.641 290.697 253.712 290.674 253.783C290.828 254.717 290.981 255.663 291.123 256.598C294.801 256.314 299.944 253.523 301.825 250.744C301.825 250.733 301.848 250.744 301.848 250.756C300.571 252.885 298.632 254.126 296.444 255.202C294.812 256.006 293.051 256.952 291.206 257.094C291.466 258.832 291.726 260.583 291.986 262.321C293.583 261.73 295.274 261.446 296.858 260.807C299.211 259.873 300.997 258.182 302.38 256.101C302.463 255.971 302.676 256.077 302.593 256.207C300.051 260.251 296.385 261.446 292.093 262.959C292.306 264.39 292.53 265.821 292.767 267.24C296.279 266.566 300.819 264.426 302.605 261.375C302.735 261.15 303.09 261.339 302.96 261.564C301.836 263.515 299.897 264.757 297.934 265.75C296.515 266.471 294.552 267.654 292.861 267.784C292.861 267.831 292.873 267.878 292.885 267.926C293.228 269.983 293.642 272.017 294.079 274.051C298.005 273.069 300.536 270.161 303.397 267.441C303.598 267.252 303.906 267.535 303.705 267.736C300.796 270.598 298.242 273.602 294.209 274.654C294.576 276.309 294.954 277.965 295.356 279.608C298.703 278.674 302.002 276.298 304.166 273.578C304.319 273.389 304.591 273.649 304.438 273.838C302.191 276.794 298.951 279.029 295.498 280.247C295.936 282.009 296.385 283.783 296.834 285.544C300.264 285.024 302.912 282.872 305.029 280.152C305.076 280.093 305.195 280.176 305.147 280.235C303.267 282.848 300.429 285.864 297.012 286.183C297.154 286.751 297.307 287.306 297.449 287.874C297.532 288.217 297.627 288.56 297.721 288.903C300.311 288.146 302.711 287.212 304.852 285.462C304.911 285.414 304.982 285.509 304.923 285.556C302.889 287.389 300.465 288.619 297.863 289.411C298.147 290.464 298.454 291.563 298.762 292.663C299.4 292.367 300.027 292.036 300.725 291.823C302.014 291.433 302.841 290.617 303.965 289.943C304.071 289.884 304.178 290.026 304.083 290.097C303.102 290.736 302.404 291.563 301.281 291.989C300.453 292.296 299.661 292.698 298.856 293.053C300.039 297.452 301.08 302.123 300.512 306.344C300.382 307.278 298.821 307.527 298.573 306.533C297.828 303.471 297.863 300.207 297.52 297.074L297.473 297.085Z" fill="#747DED"/>
<path d="M322.046 264.661C319.729 274.44 312.102 289.387 322.779 297.286C325.653 299.414 329.756 298.646 332.783 296.978C336.744 294.803 340.576 288.074 342.397 284.054C343.839 280.873 344.407 276.829 345.542 273.471C346.772 269.841 348.084 266.234 349.29 262.592C353.63 249.467 351.986 236.022 343.886 224.682C341.131 228.371 337.584 230.926 334.048 234.047C332.44 235.466 330.856 237.027 329.472 238.671C327.024 241.568 326.551 245.434 325.877 248.982C324.884 254.232 323.276 259.447 322.046 264.661Z" fill="url(#paint7_linear_2734_2107)"/>
<path d="M324.646 298.527C324.906 297.735 325.167 296.943 325.415 296.151C324.008 295.489 322.908 294.01 322.009 292.84C320.448 290.818 319.502 288.512 318.639 286.135C318.592 286.005 318.805 285.934 318.864 286.052C319.845 288.157 320.898 290.238 322.4 292.024C323.239 293.017 324.422 294.554 325.663 295.323C325.959 294.377 326.231 293.419 326.503 292.461C325.119 291.598 324.221 290.002 323.322 288.689C321.796 286.454 320.732 283.983 319.573 281.535C319.562 281.512 319.597 281.488 319.621 281.512C321.525 284.953 323.357 289.422 326.692 291.776C327.023 290.569 327.33 289.363 327.614 288.145C327.626 288.086 327.638 288.015 327.662 287.956C323.937 284.929 322.624 280.282 320.638 276.108C320.602 276.037 320.709 275.978 320.744 276.049C322.778 279.998 324.457 284.22 327.827 287.247C328.217 285.508 328.596 283.77 328.974 282.032C325.805 278.851 323.807 275.186 322.589 270.834C322.565 270.763 322.672 270.716 322.695 270.799C324.114 274.961 326.396 278.023 329.14 281.299C329.506 279.572 329.885 277.858 330.287 276.143C329.01 274.559 327.508 273.258 326.479 271.484C325.462 269.734 324.694 267.842 324.457 265.82C324.445 265.714 324.599 265.69 324.623 265.797C325.332 269.864 328.111 272.324 330.464 275.387C330.842 273.79 331.233 272.194 331.67 270.609C329.092 267.086 326.148 263.562 325.888 258.986C325.888 258.938 325.947 258.927 325.959 258.986C326.479 263.314 329.447 266.459 331.895 269.829C331.978 269.545 332.049 269.261 332.131 268.978C332.557 267.511 332.994 266.057 333.432 264.602C331.812 262.876 330.44 260.866 329.187 258.856C328.3 257.437 327.319 255.982 327.094 254.291C327.082 254.185 327.236 254.161 327.259 254.268C327.874 257.803 331.233 261.232 333.621 263.976C334.071 262.509 334.52 261.043 334.957 259.565C332.557 255.994 329.151 253.038 328.785 248.438C328.785 248.296 328.974 248.273 328.998 248.414C329.577 252.73 332.853 255.497 335.158 258.879C335.43 257.969 335.702 257.058 335.974 256.148C332.983 253.144 330.192 248.166 329.814 244.027C329.79 243.803 330.133 243.755 330.168 243.98C330.771 247.74 333.231 252.671 336.187 255.426C336.613 253.948 337.039 252.458 337.429 250.969C337.429 250.921 337.429 250.874 337.429 250.827C336.033 249.597 334.957 247.705 333.964 246.191C332.758 244.37 331.717 242.407 331.469 240.208C331.445 239.96 331.824 239.936 331.847 240.173C332.119 243.779 335.028 247.468 337.665 250.023C337.807 249.479 337.949 248.935 338.079 248.379C338.28 247.563 338.481 246.735 338.67 245.919C337.795 244.429 336.353 243.247 335.501 241.698C334.756 240.362 334.236 238.919 333.728 237.465C333.68 237.323 333.893 237.24 333.952 237.382C334.685 239.215 335.478 241.024 336.672 242.608C337.334 243.495 338.221 244.24 338.848 245.163C339.167 243.815 339.486 242.478 339.817 241.142C339.806 241.142 339.794 241.119 339.782 241.107H339.735C339.64 241.071 339.581 241 339.557 240.929C338.008 239.676 337.37 237.536 336.79 235.703C336.778 235.656 336.838 235.632 336.861 235.679C337.571 237.394 338.375 239.309 339.805 240.575C339.805 240.575 339.817 240.575 339.829 240.575L339.959 240.61C340.231 239.522 340.515 238.434 340.811 237.358C340.692 237.276 340.633 237.122 340.728 237.004C340.089 235.951 339.616 234.757 339.191 233.61C339.155 233.527 339.285 233.468 339.321 233.551C339.817 234.639 340.349 235.608 341.047 236.554C341.686 234.331 342.395 232.132 343.258 229.968C343.341 229.767 343.637 229.909 343.566 230.098C342.809 232.203 342.17 234.355 341.591 236.507C343.152 235.691 344.831 234.887 346.096 233.704C346.167 233.645 346.262 233.728 346.203 233.799C345.493 234.568 344.63 235.123 343.767 235.691C342.986 236.199 342.253 236.873 341.39 237.252C341.083 238.411 340.799 239.581 340.527 240.752C341.792 241.107 342.975 241.391 344.334 240.988C346.002 240.504 347.338 239.404 348.189 237.879C348.296 237.689 348.603 237.831 348.485 238.02C347.669 239.416 346.451 240.527 344.949 241.142C343.365 241.793 341.958 241.592 340.409 241.225C340.089 242.573 339.782 243.933 339.486 245.281C340.846 245.139 342.23 244.761 343.554 244.441C345.682 243.921 347.291 242.869 349.289 242.1C349.49 242.029 349.62 242.325 349.419 242.407C347.527 243.164 346.002 244.217 344.003 244.761C342.561 245.151 340.917 245.707 339.38 245.777L339.333 245.99C339.333 245.99 339.344 246.026 339.356 246.049C339.403 246.191 339.356 246.286 339.25 246.333C338.966 247.634 338.67 248.935 338.375 250.224C338.351 250.306 338.339 250.389 338.316 250.46C341.65 250.484 346.77 250.212 348.615 247.196C348.792 246.913 349.206 247.196 348.993 247.48C346.498 250.708 341.792 250.46 338.15 251.158C337.795 252.612 337.417 254.067 337.027 255.521C339.084 255.734 341.118 255.769 343.164 255.273C345.02 254.823 347.539 254.421 348.922 253.038C348.97 252.991 349.029 253.062 348.981 253.109C347.645 254.504 345.399 254.847 343.613 255.391C341.355 256.089 339.167 256.55 336.861 256.171C336.849 256.242 336.826 256.301 336.778 256.349C336.518 257.259 336.258 258.182 335.998 259.092C339.451 260.393 345.292 260.026 348.177 258.3C348.189 258.3 348.201 258.312 348.177 258.324C346.12 259.707 343.838 260.014 341.402 260.074C339.581 260.109 337.582 260.227 335.844 259.577C335.348 261.268 334.851 262.959 334.342 264.638C336.045 264.768 337.689 265.229 339.392 265.324C341.922 265.466 344.252 264.685 346.38 263.396C346.51 263.314 346.652 263.503 346.522 263.586C342.502 266.187 338.682 265.714 334.153 265.276C333.739 266.66 333.349 268.055 332.959 269.439C336.424 270.314 341.449 270.29 344.346 268.268C344.559 268.114 344.807 268.434 344.594 268.587C342.75 269.888 340.48 270.196 338.268 270.266C336.672 270.314 334.402 270.574 332.817 269.971C332.805 270.018 332.793 270.065 332.782 270.113C332.226 272.123 331.741 274.145 331.28 276.167C335.253 276.924 338.777 275.363 342.513 274.098C342.774 274.015 342.927 274.405 342.667 274.5C338.824 275.871 335.241 277.503 331.138 276.758C330.771 278.414 330.417 280.069 330.086 281.736C333.515 282.304 337.512 281.547 340.621 279.986C340.846 279.88 340.976 280.223 340.763 280.341C337.476 282.067 333.598 282.73 329.956 282.375C329.601 284.16 329.27 285.946 328.939 287.732C332.273 288.701 335.572 287.873 338.647 286.301C338.718 286.265 338.789 286.384 338.718 286.431C335.915 288.003 332.06 289.541 328.832 288.394C328.726 288.961 328.619 289.541 328.513 290.108C328.454 290.451 328.383 290.806 328.324 291.161C330.996 291.563 333.562 291.728 336.234 291.054C336.305 291.031 336.329 291.149 336.258 291.173C333.645 291.977 330.925 292.059 328.229 291.693C328.04 292.769 327.863 293.892 327.662 295.016C328.371 295.016 329.069 294.98 329.802 295.086C331.138 295.276 332.238 294.897 333.538 294.755C333.657 294.744 333.704 294.921 333.574 294.945C332.415 295.11 331.434 295.571 330.239 295.477C329.352 295.406 328.477 295.441 327.591 295.429C326.798 299.911 325.781 304.594 323.476 308.188C322.967 308.981 321.442 308.543 321.643 307.538C322.258 304.452 323.677 301.495 324.682 298.516L324.646 298.527Z" fill="#747DED"/>
<path d="M299.473 257.082C298.917 269.51 293.099 289.446 307.928 296.577C311.924 298.492 316.725 296.612 320.012 293.881C324.317 290.322 327.427 281.252 328.704 275.943C329.72 271.733 329.472 266.696 330.075 262.344C330.737 257.65 331.482 252.955 332.109 248.261C334.344 231.304 329.236 215.329 316.761 203.434C314.266 208.554 310.541 212.479 306.97 217.103C305.338 219.208 303.777 221.466 302.476 223.784C300.171 227.875 300.49 232.676 300.502 237.158C300.502 243.779 299.769 250.484 299.473 257.094V257.082Z" fill="url(#paint8_linear_2734_2107)"/>
<path d="M310.471 297.641C310.612 296.624 310.743 295.595 310.861 294.578C308.992 294.105 307.313 292.544 305.954 291.338C303.589 289.245 301.898 286.667 300.313 283.96C300.23 283.818 300.467 283.676 300.561 283.806C302.241 286.135 304.014 288.417 306.249 290.25C307.491 291.267 309.288 292.864 310.979 293.514C311.109 292.284 311.227 291.066 311.334 289.836C309.454 289.103 307.987 287.377 306.592 285.982C304.215 283.617 302.347 280.861 300.384 278.154C300.36 278.118 300.408 278.083 300.431 278.118C303.541 281.855 306.805 286.868 311.405 288.95C311.523 287.412 311.618 285.863 311.689 284.326C311.689 284.243 311.689 284.161 311.689 284.09C306.462 281.263 303.79 275.931 300.408 271.307C300.349 271.236 300.455 271.13 300.514 271.212C303.896 275.552 306.911 280.282 311.724 283.179C311.807 280.98 311.854 278.768 311.913 276.569C307.325 273.424 304.038 269.451 301.555 264.425C301.507 264.342 301.638 264.271 301.685 264.354C304.381 269.084 307.857 272.289 311.937 275.623C311.996 273.447 312.043 271.26 312.126 269.084C310.21 267.452 308.082 266.222 306.415 264.295C304.771 262.403 303.411 260.286 302.654 257.886C302.619 257.756 302.808 257.697 302.855 257.827C304.653 262.604 308.602 264.945 312.185 268.126C312.268 266.092 312.386 264.07 312.54 262.037C308.59 258.347 304.192 254.741 302.808 249.242C302.796 249.183 302.879 249.159 302.891 249.219C304.523 254.362 308.851 257.496 312.623 261.031C312.658 260.665 312.682 260.31 312.705 259.944C312.883 258.075 313.072 256.195 313.273 254.327C310.896 252.6 308.768 250.472 306.781 248.332C305.374 246.806 303.849 245.269 303.175 243.259C303.127 243.129 303.317 243.058 303.364 243.188C304.937 247.338 309.808 250.744 313.356 253.511C313.557 251.619 313.758 249.739 313.959 247.847C310.21 244.051 305.386 241.261 303.884 235.75C303.837 235.585 304.085 235.514 304.133 235.667C305.835 240.776 310.459 243.389 314.042 246.96C314.16 245.789 314.29 244.619 314.396 243.448C310.069 240.492 305.528 235.088 304.097 230.133C304.014 229.862 304.416 229.731 304.511 229.992C306.119 234.426 310.234 239.842 314.479 242.514C314.657 240.61 314.822 238.718 314.964 236.814C314.94 236.755 314.928 236.696 314.928 236.637C312.942 235.466 311.204 233.421 309.643 231.813C307.763 229.873 306.036 227.733 305.22 225.12C305.126 224.836 305.599 224.706 305.67 225.002C306.829 229.318 311.227 233.125 315.023 235.632C315.07 234.934 315.118 234.237 315.153 233.539C315.212 232.498 315.26 231.458 315.307 230.405C313.9 228.797 311.878 227.686 310.482 226.007C309.264 224.552 308.295 222.92 307.349 221.277C307.254 221.111 307.491 220.958 307.597 221.123C308.91 223.181 310.293 225.191 312.114 226.846C313.131 227.769 314.385 228.466 315.342 229.448C315.413 227.745 315.496 226.042 315.591 224.328C315.567 224.328 315.555 224.304 315.532 224.304H315.472C315.354 224.304 315.26 224.233 315.212 224.138C313.037 222.968 311.771 220.52 310.648 218.427C310.624 218.38 310.695 218.332 310.719 218.38C311.972 220.307 313.403 222.447 315.437 223.654C315.437 223.654 315.449 223.654 315.461 223.654H315.638C315.721 222.282 315.815 220.898 315.922 219.515C315.756 219.444 315.65 219.267 315.733 219.101C314.716 217.966 313.864 216.63 313.072 215.341C313.013 215.246 313.155 215.152 313.214 215.246C314.065 216.464 314.952 217.505 316.005 218.498C316.265 215.648 316.619 212.81 317.175 209.984C317.222 209.724 317.613 209.819 317.577 210.079C317.14 212.822 316.856 215.565 316.655 218.332C318.358 216.973 320.214 215.613 321.491 213.886C321.562 213.792 321.704 213.886 321.645 213.981C320.959 215.081 320.037 215.956 319.114 216.854C318.287 217.658 317.542 218.64 316.584 219.302C316.478 220.78 316.407 222.27 316.336 223.76C317.956 223.902 319.457 223.973 321.018 223.169C322.934 222.187 324.305 220.544 324.991 218.498C325.074 218.25 325.476 218.356 325.393 218.604C324.731 220.496 323.501 222.116 321.81 223.228C320.037 224.387 318.287 224.458 316.312 224.375C316.241 226.089 316.182 227.804 316.123 229.53C317.755 229.046 319.339 228.265 320.876 227.568C323.348 226.444 325.05 224.789 327.309 223.393C327.534 223.252 327.758 223.594 327.534 223.736C325.417 225.096 323.797 226.728 321.491 227.839C319.836 228.644 317.956 229.708 316.111 230.133V230.405C316.111 230.405 316.135 230.441 316.146 230.465C316.241 230.618 316.194 230.76 316.087 230.843C316.04 232.487 315.981 234.13 315.922 235.774C315.922 235.88 315.922 235.975 315.91 236.081C319.966 235.336 326.126 233.823 327.676 229.72C327.817 229.329 328.397 229.59 328.196 229.98C325.914 234.485 320.131 235.265 315.863 236.956C315.768 238.813 315.65 240.669 315.508 242.514C318.062 242.301 320.545 241.864 322.91 240.799C325.062 239.83 328.03 238.754 329.402 236.743C329.449 236.684 329.532 236.743 329.497 236.814C328.196 238.825 325.535 239.759 323.501 240.835C320.924 242.206 318.358 243.271 315.472 243.353C315.472 243.436 315.461 243.519 315.413 243.59C315.319 244.761 315.212 245.931 315.094 247.102C319.599 247.882 326.611 246.085 329.721 243.318C329.733 243.306 329.757 243.318 329.745 243.342C327.557 245.506 324.861 246.404 321.917 247.031C319.717 247.504 317.305 248.107 315.047 247.717C314.834 249.881 314.609 252.056 314.396 254.22C316.489 253.996 318.606 254.161 320.699 253.877C323.797 253.464 326.469 251.986 328.752 249.904C328.893 249.774 329.106 249.963 328.964 250.105C324.684 254.197 319.93 254.504 314.314 255.024C314.136 256.798 313.971 258.584 313.829 260.369C318.251 260.629 324.353 259.435 327.404 256.313C327.628 256.089 327.995 256.42 327.77 256.644C325.831 258.655 323.135 259.542 320.462 260.145C318.535 260.57 315.827 261.41 313.758 261.043C313.758 261.102 313.758 261.162 313.746 261.221C313.545 263.787 313.403 266.364 313.32 268.93C318.322 268.93 322.248 266.222 326.505 263.822C326.8 263.657 327.084 264.094 326.789 264.271C322.437 266.826 318.464 269.652 313.297 269.687C313.226 271.78 313.19 273.885 313.167 275.978C317.459 275.871 322.153 274.027 325.571 271.414C325.807 271.224 326.056 271.626 325.819 271.816C322.224 274.677 317.66 276.38 313.155 276.794C313.143 279.04 313.143 281.299 313.155 283.546C317.435 283.96 321.255 282.186 324.625 279.561C324.708 279.502 324.814 279.632 324.731 279.703C321.68 282.269 317.364 285.024 313.167 284.373C313.167 285.095 313.167 285.816 313.167 286.525C313.167 286.963 313.167 287.401 313.178 287.85C316.513 287.72 319.682 287.33 322.768 285.887C322.851 285.851 322.91 285.982 322.827 286.017C319.836 287.59 316.548 288.335 313.19 288.512C313.214 289.872 313.249 291.267 313.273 292.686C314.136 292.521 314.976 292.32 315.886 292.272C317.554 292.201 318.795 291.468 320.344 291.007C320.486 290.96 320.581 291.173 320.439 291.22C319.067 291.693 317.979 292.473 316.513 292.639C315.425 292.757 314.361 293.005 313.285 293.183C313.368 298.823 313.202 304.747 311.239 309.643C310.802 310.731 308.839 310.553 308.851 309.276C308.886 305.374 309.927 301.472 310.447 297.605L310.471 297.641Z" fill="#747DED"/>
<path d="M291.302 302.299L291.846 312.398L292.709 328.136L294.116 353.973H329.106L330.513 328.136L331.364 312.398L331.92 302.299H291.302Z" fill="#95A8B5"/>
<path d="M291.845 312.397L291.952 314.431L292.07 316.524L292.708 328.136H330.512L331.139 316.524L331.257 314.431L331.363 312.397H291.845Z" fill="#A5B7C6"/>
<path d="M291.953 314.432L292.071 316.525H331.14L331.258 314.432H291.953Z" fill="#95A8B5"/>
<ellipse cx="146.5" cy="184.885" rx="50.5" ry="49.8851" fill="#44428A"/>
<path d="M166.568 176.108C165.947 175.908 165.325 175.719 164.704 175.54C164.808 175.128 164.9 174.716 164.992 174.304C166.407 167.668 165.475 162.335 162.334 160.576C159.307 158.894 154.371 160.642 149.377 164.851C148.882 165.263 148.398 165.698 147.938 166.132C147.627 165.842 147.305 165.553 146.983 165.274C141.747 160.776 136.5 158.883 133.359 160.654C130.344 162.346 129.446 167.368 130.712 173.648C130.839 174.271 130.977 174.883 131.138 175.507C130.401 175.707 129.676 175.93 128.997 176.164C122.853 178.224 118.445 181.475 118.445 184.838C118.445 188.312 123.14 191.797 129.527 193.912C130.045 194.079 130.562 194.246 131.092 194.391C130.919 195.059 130.769 195.716 130.631 196.395C129.423 202.575 130.367 207.474 133.382 209.155C136.489 210.892 141.713 209.111 146.799 204.802C147.202 204.457 147.604 204.1 148.007 203.722C148.514 204.201 149.043 204.657 149.572 205.102C154.497 209.2 159.365 210.859 162.368 209.178C165.475 207.441 166.488 202.174 165.176 195.761C165.072 195.271 164.957 194.77 164.831 194.257C165.199 194.157 165.556 194.046 165.912 193.935C172.552 191.808 177.362 188.367 177.362 184.838C177.362 181.464 172.828 178.19 166.568 176.108ZM150.999 166.655C155.28 163.048 159.273 161.633 161.091 162.647C163.036 163.727 163.784 168.091 162.564 173.826C162.483 174.204 162.403 174.572 162.299 174.939C159.745 174.382 157.155 173.982 154.555 173.759C153.059 171.688 151.425 169.706 149.653 167.846C150.102 167.434 150.539 167.045 150.999 166.655ZM137.685 190.616C138.272 191.585 138.871 192.554 139.503 193.5C137.708 193.311 135.925 193.033 134.164 192.665C134.67 191.062 135.303 189.403 136.04 187.71C136.569 188.69 137.11 189.659 137.685 190.616ZM134.199 177.222C135.856 176.865 137.616 176.576 139.446 176.353C138.836 177.277 138.238 178.224 137.674 179.181C137.11 180.128 136.558 181.096 136.04 182.076C135.315 180.417 134.705 178.792 134.199 177.222ZM137.352 184.893C138.111 183.357 138.94 181.854 139.814 180.373C140.689 178.892 141.632 177.456 142.622 176.041C144.348 175.919 146.109 175.852 147.904 175.852C149.699 175.852 151.471 175.919 153.185 176.041C154.164 177.444 155.096 178.881 155.982 180.35C156.868 181.82 157.696 183.323 158.479 184.849C157.708 186.385 156.879 187.9 155.993 189.392C155.119 190.873 154.187 192.309 153.208 193.734C151.494 193.857 149.71 193.912 147.904 193.912C146.097 193.912 144.348 193.857 142.656 193.756C141.655 192.342 140.712 190.895 139.826 189.414C138.94 187.933 138.123 186.43 137.352 184.893ZM158.134 190.594C158.72 189.614 159.273 188.623 159.814 187.621C160.55 189.236 161.194 190.873 161.758 192.554C159.975 192.944 158.168 193.244 156.35 193.445C156.971 192.509 157.558 191.552 158.134 190.594ZM159.791 182.076C159.25 181.096 158.697 180.117 158.122 179.159C157.558 178.213 156.971 177.277 156.361 176.353C158.214 176.576 159.986 176.877 161.643 177.244C161.114 178.892 160.492 180.495 159.791 182.076ZM147.927 169.55C149.135 170.819 150.274 172.156 151.333 173.536C149.054 173.436 146.764 173.436 144.486 173.536C145.614 172.1 146.776 170.764 147.927 169.55ZM134.578 162.725C136.512 161.633 140.804 163.192 145.326 167.067C145.614 167.312 145.901 167.579 146.201 167.846C144.417 169.706 142.771 171.688 141.264 173.759C138.663 173.982 136.086 174.371 133.531 174.917C133.382 174.349 133.255 173.77 133.128 173.191C132.047 167.802 132.76 163.738 134.578 162.725ZM131.759 192.075C131.276 191.941 130.804 191.797 130.332 191.641C127.881 190.895 125.096 189.715 123.083 188.167C121.92 187.387 121.138 186.185 120.919 184.838C120.919 182.8 124.556 180.195 129.803 178.424C130.459 178.202 131.126 178.001 131.794 177.812C132.576 180.228 133.52 182.6 134.613 184.893C133.508 187.22 132.553 189.625 131.759 192.075ZM145.176 202.987C143.278 204.668 141.08 206.004 138.686 206.917C137.409 207.507 135.936 207.563 134.624 207.062C132.795 206.038 132.035 202.107 133.071 196.818C133.197 196.195 133.336 195.571 133.497 194.959C136.074 195.493 138.675 195.861 141.31 196.05C142.829 198.132 144.498 200.125 146.281 201.996C145.913 202.341 145.545 202.675 145.176 202.987ZM147.996 200.281C146.822 199.056 145.648 197.698 144.509 196.239C145.614 196.284 146.753 196.306 147.904 196.306C149.089 196.306 150.251 196.284 151.402 196.228C150.343 197.642 149.204 198.99 147.996 200.281ZM163.036 203.622C162.932 204.98 162.242 206.249 161.137 207.107C159.307 208.131 155.406 206.795 151.195 203.299C150.711 202.898 150.228 202.464 149.733 202.018C151.494 200.136 153.116 198.143 154.589 196.05C157.224 195.839 159.848 195.449 162.437 194.881C162.552 195.337 162.656 195.794 162.748 196.239C163.312 198.644 163.404 201.15 163.036 203.622ZM165.13 191.652C164.808 191.752 164.485 191.852 164.152 191.941C163.346 189.514 162.357 187.143 161.217 184.838C162.322 182.566 163.254 180.228 164.037 177.834C164.635 178.001 165.21 178.179 165.763 178.357C171.125 180.139 174.888 182.789 174.888 184.815C174.888 186.998 170.872 189.815 165.13 191.652ZM147.904 189.982C150.815 189.982 153.174 187.699 153.174 184.882C153.174 182.065 150.815 179.783 147.904 179.783C144.992 179.783 142.633 182.065 142.633 184.882C142.633 187.699 144.992 189.982 147.904 189.982Z" fill="white"/>
<ellipse cx="287" cy="70.5129" rx="40" ry="39.5129" fill="#FF8578"/>
<path d="M258.114 70.0846L274.924 61.3189V65.0544C274.924 65.3374 274.853 65.5992 274.712 65.8397C274.57 66.0661 274.337 66.2642 274.011 66.434L266.307 70.3818C265.981 70.5516 265.635 70.7002 265.267 70.8275C264.913 70.9407 264.531 71.0468 264.121 71.1459C264.531 71.2449 264.913 71.3581 265.267 71.4855C265.635 71.5987 265.981 71.7402 266.307 71.9099L274.011 75.8789C274.337 76.0487 274.57 76.2539 274.712 76.4944C274.853 76.7208 274.924 76.9755 274.924 77.2585V80.994L258.114 72.2071V70.0846ZM284.415 85.5148C284.287 85.8403 284.125 86.1233 283.927 86.3638C283.728 86.6044 283.502 86.8025 283.247 86.9581C282.993 87.1279 282.724 87.2553 282.441 87.3402C282.158 87.425 281.882 87.4675 281.613 87.4675H279.406L291.801 55.7581C292.041 55.1638 292.388 54.711 292.841 54.3997C293.294 54.0743 293.838 53.9116 294.475 53.9116H296.704L284.415 85.5148ZM301.064 80.994V77.2585C301.064 76.9755 301.135 76.7208 301.276 76.4944C301.418 76.2539 301.651 76.0487 301.977 75.8789L309.681 71.9099C310.304 71.5987 311.032 71.344 311.867 71.1459C311.457 71.0468 311.068 70.9407 310.7 70.8275C310.346 70.7002 310.007 70.5516 309.681 70.3818L301.977 66.434C301.651 66.2642 301.418 66.0661 301.276 65.8397C301.135 65.5992 301.064 65.3374 301.064 65.0544V61.3189L317.874 70.0846V72.2071L301.064 80.994Z" fill="white"/>
<ellipse cx="809.5" cy="232.727" rx="63.5003" ry="62.7271" fill="#F2747D"/>
<path d="M840.547 202.522H780.699L786.524 262.891L810.75 269.896L834.975 262.891L840.547 202.522Z" stroke="white" stroke-width="2.35186"/>
<path d="M835.322 208.026H811.096H784.844L789.402 259.557L811.096 265.477L830.848 259.557L835.322 208.026Z" fill="white"/>
<path d="M808.379 215.696H802.47V246.548L790.568 243.296V250.55L808.379 255.22V215.696Z" fill="#F2747D"/>
<path d="M813.291 215.613H832.283L831.777 222.617H819.115V232.956L830.933 231.873L829.245 250.967L813.291 255.136V248.049L824.855 245.13V239.46L813.291 241.128V215.613Z" fill="#F2747D"/>
<ellipse cx="710.869" cy="69.3352" rx="43.8693" ry="43.3352" fill="#868BEF"/>
<ellipse cx="862" cy="97.5253" rx="39.0002" ry="38.5253" fill="#7EAFBF"/>
<path d="M862.822 88.6832V92.0558H856.183V110.75H852.078V92.0558H845.409V88.6832H862.822ZM877.25 92.6968C877.139 92.9206 877.006 93.0783 876.854 93.1699C876.711 93.2615 876.538 93.3072 876.335 93.3072C876.131 93.3072 875.902 93.2309 875.648 93.0783C875.394 92.9155 875.094 92.7375 874.748 92.5442C874.402 92.3509 873.995 92.1779 873.527 92.0253C873.069 91.8625 872.525 91.7811 871.894 91.7811C871.324 91.7811 870.826 91.8524 870.398 91.9948C869.981 92.1271 869.625 92.3153 869.33 92.5594C869.045 92.8036 868.832 93.0987 868.689 93.4446C868.547 93.7803 868.475 94.1517 868.475 94.5586C868.475 95.0775 868.618 95.5099 868.903 95.8558C869.198 96.2017 869.584 96.4968 870.063 96.7409C870.541 96.9851 871.085 97.2039 871.695 97.3972C872.306 97.5905 872.927 97.799 873.557 98.0229C874.198 98.2365 874.824 98.4909 875.434 98.7859C876.045 99.0708 876.589 99.437 877.067 99.8847C877.546 100.322 877.927 100.861 878.212 101.502C878.507 102.143 878.654 102.922 878.654 103.837C878.654 104.834 878.482 105.77 878.136 106.645C877.8 107.51 877.301 108.268 876.64 108.919C875.989 109.56 875.19 110.069 874.244 110.445C873.298 110.812 872.214 110.995 870.993 110.995C870.291 110.995 869.6 110.923 868.918 110.781C868.236 110.649 867.58 110.455 866.949 110.201C866.329 109.947 865.744 109.642 865.194 109.285C864.655 108.929 864.172 108.533 863.745 108.095L864.935 106.126C865.047 105.984 865.179 105.867 865.332 105.775C865.494 105.674 865.673 105.623 865.866 105.623C866.12 105.623 866.395 105.73 866.69 105.943C866.985 106.147 867.331 106.376 867.728 106.63C868.135 106.884 868.608 107.118 869.147 107.332C869.696 107.536 870.353 107.637 871.116 107.637C872.286 107.637 873.191 107.363 873.832 106.813C874.473 106.254 874.793 105.455 874.793 104.417C874.793 103.837 874.646 103.364 874.351 102.998C874.066 102.632 873.684 102.326 873.206 102.082C872.728 101.828 872.184 101.614 871.573 101.441C870.963 101.268 870.342 101.08 869.712 100.877C869.081 100.673 868.46 100.429 867.85 100.144C867.239 99.8593 866.695 99.4879 866.217 99.0301C865.739 98.5723 865.352 98.0025 865.057 97.3209C864.772 96.629 864.63 95.7795 864.63 94.7723C864.63 93.9685 864.787 93.1851 865.103 92.4221C865.428 91.6591 865.896 90.9825 866.507 90.3924C867.127 89.8023 867.885 89.3292 868.781 88.9731C869.676 88.617 870.698 88.439 871.848 88.439C873.15 88.439 874.351 88.6425 875.45 89.0494C876.548 89.4564 877.484 90.0261 878.258 90.7587L877.25 92.6968Z" fill="white"/>
<path d="M696.264 77.9622C696.264 77.0943 696.058 76.3901 695.645 75.8494C695.247 75.2945 694.599 75.0171 693.703 75.0171V71.9652C694.599 71.9652 695.247 71.6949 695.645 71.1542C696.058 70.5993 696.264 69.8879 696.264 69.02C696.264 68.3513 696.214 67.6897 696.115 67.0352C696.029 66.3665 695.922 65.6978 695.794 65.0291C695.681 64.3604 695.574 63.6917 695.474 63.023C695.389 62.34 695.346 61.65 695.346 60.9528C695.346 59.8715 695.503 58.8898 695.816 58.0076C696.129 57.1113 696.605 56.343 697.246 55.7027C697.9 55.0625 698.718 54.5716 699.7 54.2301C700.696 53.8744 701.863 53.6966 703.2 53.6966H704.331V56.0442C704.331 56.2291 704.288 56.3928 704.203 56.535C704.132 56.6631 704.032 56.7698 703.904 56.8552C703.79 56.9405 703.67 57.0046 703.541 57.0472C703.413 57.0899 703.3 57.1113 703.2 57.1113H703.008C702.012 57.1113 701.251 57.4243 700.724 58.0503C700.198 58.6763 699.935 59.5371 699.935 60.6327C699.935 61.4152 699.977 62.1693 700.063 62.8949C700.148 63.6063 700.234 64.3035 700.319 64.9864C700.418 65.6551 700.511 66.3167 700.596 66.9712C700.682 67.6257 700.724 68.2873 700.724 68.956C700.724 69.4967 700.646 70.0089 700.49 70.4926C700.347 70.9764 700.127 71.4174 699.828 71.8158C699.543 72.2 699.195 72.5414 698.782 72.8402C698.384 73.139 697.929 73.3595 697.416 73.5018C697.929 73.6583 698.384 73.886 698.782 74.1847C699.195 74.4693 699.543 74.8108 699.828 75.2092C700.127 75.6075 700.347 76.0486 700.49 76.5323C700.646 77.0161 700.724 77.5212 700.724 78.0476C700.724 78.7163 700.682 79.3779 700.596 80.0324C700.511 80.6869 700.418 81.3556 700.319 82.0385C700.234 82.7073 700.148 83.4044 700.063 84.13C699.977 84.8414 699.935 85.5884 699.935 86.3709C699.935 87.4523 700.198 88.3059 700.724 88.932C701.251 89.558 702.012 89.871 703.008 89.871H703.2C703.3 89.871 703.413 89.8923 703.541 89.935C703.67 89.9777 703.79 90.0417 703.904 90.1271C704.032 90.2125 704.132 90.3263 704.203 90.4686C704.288 90.6108 704.331 90.7745 704.331 90.9594V93.2857H703.2C701.863 93.2857 700.696 93.1078 699.7 92.7521C698.718 92.4107 697.9 91.9198 697.246 91.2796C696.605 90.6535 696.129 89.8923 695.816 88.996C695.503 88.1138 695.346 87.1321 695.346 86.0508C695.346 85.3536 695.389 84.6707 695.474 84.002C695.574 83.319 695.681 82.6432 695.794 81.9745C695.922 81.3058 696.029 80.6371 696.115 79.9684C696.214 79.2997 696.264 78.631 696.264 77.9622ZM723.759 77.9622C723.759 78.631 723.802 79.2997 723.887 79.9684C723.987 80.6371 724.094 81.3058 724.207 81.9745C724.335 82.6432 724.442 83.319 724.528 84.002C724.627 84.6707 724.677 85.3536 724.677 86.0508C724.677 87.1321 724.52 88.1138 724.207 88.996C723.894 89.8923 723.411 90.6535 722.756 91.2796C722.116 91.9198 721.298 92.4107 720.302 92.7521C719.32 93.1078 718.161 93.2857 716.823 93.2857H715.692V90.9594C715.692 90.7745 715.728 90.6108 715.799 90.4686C715.884 90.3263 715.984 90.2125 716.097 90.1271C716.226 90.0417 716.354 89.9777 716.482 89.935C716.61 89.8923 716.724 89.871 716.823 89.871H717.015C718.011 89.871 718.772 89.558 719.299 88.932C719.825 88.3059 720.088 87.4523 720.088 86.3709C720.088 85.5884 720.046 84.8414 719.96 84.13C719.875 83.4044 719.783 82.7073 719.683 82.0385C719.598 81.3556 719.512 80.6869 719.427 80.0324C719.341 79.3779 719.299 78.7163 719.299 78.0476C719.299 77.5212 719.37 77.0161 719.512 76.5323C719.669 76.0486 719.889 75.6075 720.174 75.2092C720.458 74.8108 720.807 74.4693 721.22 74.1847C721.632 73.886 722.095 73.6583 722.607 73.5018C722.095 73.3595 721.632 73.139 721.22 72.8402C720.807 72.5414 720.458 72.2 720.174 71.8158C719.889 71.4174 719.669 70.9764 719.512 70.4926C719.37 70.0089 719.299 69.4967 719.299 68.956C719.299 68.2873 719.341 67.6257 719.427 66.9712C719.512 66.3167 719.598 65.6551 719.683 64.9864C719.783 64.3035 719.875 63.6063 719.96 62.8949C720.046 62.1693 720.088 61.4152 720.088 60.6327C720.088 59.5371 719.825 58.6763 719.299 58.0503C718.772 57.4243 718.011 57.1113 717.015 57.1113H716.823C716.724 57.1113 716.61 57.0899 716.482 57.0472C716.354 57.0046 716.226 56.9405 716.097 56.8552C715.984 56.7698 715.884 56.6631 715.799 56.535C715.728 56.3928 715.692 56.2291 715.692 56.0442V53.6966H716.823C718.161 53.6966 719.32 53.8744 720.302 54.2301C721.298 54.5716 722.116 55.0625 722.756 55.7027C723.411 56.343 723.894 57.1113 724.207 58.0076C724.52 58.8898 724.677 59.8715 724.677 60.9528C724.677 61.65 724.627 62.34 724.528 63.023C724.442 63.6917 724.335 64.3604 724.207 65.0291C724.094 65.6978 723.987 66.3665 723.887 67.0352C723.802 67.6897 723.759 68.3513 723.759 69.02C723.759 69.8879 723.958 70.5993 724.357 71.1542C724.769 71.6949 725.424 71.9652 726.32 71.9652V75.0171C725.424 75.0171 724.769 75.2945 724.357 75.8494C723.958 76.3901 723.759 77.0943 723.759 77.9622Z" fill="white"/>
<defs>
<radialGradient id="paint0_radial_2734_2107" cx="0" cy="0" r="1" gradientUnits="userSpaceOnUse" gradientTransform="translate(417.599 96.217) rotate(180) scale(15.2893 15.2893)">
<stop stop-color="#FFC8AF"/>
<stop offset="1" stop-color="#FFBB9C"/>
</radialGradient>
<radialGradient id="paint1_radial_2734_2107" cx="0" cy="0" r="1" gradientUnits="userSpaceOnUse" gradientTransform="translate(426.446 68.5609) rotate(-167.85) scale(24.0987 24.0987)">
<stop stop-color="#FFC8AF"/>
<stop offset="1" stop-color="#FFBB9C"/>
</radialGradient>
<radialGradient id="paint2_radial_2734_2107" cx="0" cy="0" r="1" gradientUnits="userSpaceOnUse" gradientTransform="translate(450.186 327) rotate(180) scale(9.61348 9.61349)">
<stop stop-color="#FFC8AF"/>
<stop offset="1" stop-color="#FFBB9C"/>
</radialGradient>
<radialGradient id="paint3_radial_2734_2107" cx="0" cy="0" r="1" gradientUnits="userSpaceOnUse" gradientTransform="translate(511.039 329.412) rotate(180) scale(8.75028 8.75027)">
<stop stop-color="#FFC8AF"/>
<stop offset="1" stop-color="#FFBB9C"/>
</radialGradient>
<radialGradient id="paint4_radial_2734_2107" cx="0" cy="0" r="1" gradientUnits="userSpaceOnUse" gradientTransform="translate(457.753 165.179) rotate(180) scale(49.0016 49.0016)">
<stop stop-color="#FFC8AF"/>
<stop offset="1" stop-color="#FFBB9C"/>
</radialGradient>
<radialGradient id="paint5_radial_2734_2107" cx="0" cy="0" r="1" gradientUnits="userSpaceOnUse" gradientTransform="translate(457.758 165.18) rotate(180) scale(49.0016 49.0016)">
<stop stop-color="#FFC8AF"/>
<stop offset="1" stop-color="#FFBB9C"/>
</radialGradient>
<linearGradient id="paint6_linear_2734_2107" x1="291.857" y1="221.989" x2="291.85" y2="296.839" gradientUnits="userSpaceOnUse">
<stop stop-color="#606BF1"/>
<stop offset="1" stop-color="#58479F"/>
</linearGradient>
<linearGradient id="paint7_linear_2734_2107" x1="351.202" y1="228.121" x2="319.611" y2="295.977" gradientUnits="userSpaceOnUse">
<stop stop-color="#606BF1"/>
<stop offset="1" stop-color="#58479F"/>
</linearGradient>
<linearGradient id="paint8_linear_2734_2107" x1="326.511" y1="205.872" x2="303.808" y2="295.673" gradientUnits="userSpaceOnUse">
<stop stop-color="#606BF1"/>
<stop offset="1" stop-color="#58479F"/>
</linearGradient>
</defs>
</svg>
